<mxfile host="65bd71144e" pages="2">
    <diagram id="FZimzOWbiY0pmrnXrLaN" name="DFD контекстная">
        <mxGraphModel dx="702" dy="1732" grid="1" gridSize="10" guides="1" tooltips="1" connect="1" arrows="1" fold="1" page="1" pageScale="1" pageWidth="827" pageHeight="1169" math="0" shadow="0">
            <root>
                <mxCell id="0"/>
                <mxCell id="1" parent="0"/>
                <mxCell id="komNeLyyzliTDDAAMzvB-3" value="Врач" style="html=1;dashed=0;whitespace=wrap;" parent="1" vertex="1">
                    <mxGeometry x="309" y="-250" width="210" height="50" as="geometry"/>
                </mxCell>
                <mxCell id="komNeLyyzliTDDAAMzvB-4" value="Лаборатория" style="html=1;dashed=0;whitespace=wrap;" parent="1" vertex="1">
                    <mxGeometry x="680" y="-550" width="100" height="50" as="geometry"/>
                </mxCell>
                <mxCell id="komNeLyyzliTDDAAMzvB-5" value="Пациент" style="html=1;dashed=0;whitespace=wrap;" parent="1" vertex="1">
                    <mxGeometry x="260" y="-850" width="290" height="50" as="geometry"/>
                </mxCell>
                <mxCell id="rhUK0AfXt017CsrgmApv-1" value="0" style="swimlane;childLayout=stackLayout;horizontal=1;startSize=30;horizontalStack=0;rounded=1;fontSize=14;fontStyle=0;strokeWidth=1;resizeParent=0;resizeLast=1;shadow=0;dashed=0;align=center;fillColor=#FFFFFF;" parent="1" vertex="1">
                    <mxGeometry x="320" y="-610" width="170" height="160" as="geometry"/>
                </mxCell>
                <mxCell id="rhUK0AfXt017CsrgmApv-2" value="Приложение &quot;Вита&quot;" style="align=center;strokeColor=none;fillColor=none;spacingLeft=4;fontSize=12;verticalAlign=middle;resizable=0;rotatable=0;part=1;" parent="rhUK0AfXt017CsrgmApv-1" vertex="1">
                    <mxGeometry y="30" width="170" height="130" as="geometry"/>
                </mxCell>
                <mxCell id="IFIdm5lz05eev_pi06Lj-4" value="" style="endArrow=classic;html=1;rounded=0;entryX=0.904;entryY=0.968;entryDx=0;entryDy=0;exitX=1;exitY=0;exitDx=0;exitDy=0;entryPerimeter=0;" parent="1" source="rhUK0AfXt017CsrgmApv-2" target="komNeLyyzliTDDAAMzvB-5" edge="1">
                    <mxGeometry width="50" height="50" relative="1" as="geometry">
                        <mxPoint x="350" y="-790" as="sourcePoint"/>
                        <mxPoint x="350" y="-680" as="targetPoint"/>
                        <Array as="points">
                            <mxPoint x="520" y="-580"/>
                        </Array>
                    </mxGeometry>
                </mxCell>
                <mxCell id="IFIdm5lz05eev_pi06Lj-5" value="Расписание процедурного&lt;div&gt;&amp;nbsp;кабинета&lt;/div&gt;" style="edgeLabel;html=1;align=center;verticalAlign=middle;resizable=0;points=[];" parent="IFIdm5lz05eev_pi06Lj-4" connectable="0" vertex="1">
                    <mxGeometry x="-0.0451" y="2" relative="1" as="geometry">
                        <mxPoint as="offset"/>
                    </mxGeometry>
                </mxCell>
                <mxCell id="IFIdm5lz05eev_pi06Lj-6" value="" style="endArrow=classic;html=1;rounded=0;entryX=0.623;entryY=1;entryDx=0;entryDy=0;entryPerimeter=0;" parent="1" target="komNeLyyzliTDDAAMzvB-5" edge="1">
                    <mxGeometry width="50" height="50" relative="1" as="geometry">
                        <mxPoint x="440" y="-610" as="sourcePoint"/>
                        <mxPoint x="440" y="-790" as="targetPoint"/>
                    </mxGeometry>
                </mxCell>
                <mxCell id="IFIdm5lz05eev_pi06Lj-7" value="Результаты анализов" style="edgeLabel;html=1;align=center;verticalAlign=middle;resizable=0;points=[];" parent="IFIdm5lz05eev_pi06Lj-6" connectable="0" vertex="1">
                    <mxGeometry x="0.4272" y="3" relative="1" as="geometry">
                        <mxPoint y="14" as="offset"/>
                    </mxGeometry>
                </mxCell>
                <mxCell id="-vm4lhuLJNUE3L4ekNpX-6" value="" style="endArrow=classic;html=1;rounded=0;entryX=1;entryY=0.5;entryDx=0;entryDy=0;" parent="1" target="rhUK0AfXt017CsrgmApv-2" edge="1">
                    <mxGeometry width="50" height="50" relative="1" as="geometry">
                        <mxPoint x="680" y="-515" as="sourcePoint"/>
                        <mxPoint x="500" y="-510" as="targetPoint"/>
                    </mxGeometry>
                </mxCell>
                <mxCell id="-vm4lhuLJNUE3L4ekNpX-7" value="Результаты анализов" style="edgeLabel;html=1;align=center;verticalAlign=middle;resizable=0;points=[];" parent="-vm4lhuLJNUE3L4ekNpX-6" connectable="0" vertex="1">
                    <mxGeometry x="-0.0051" y="1" relative="1" as="geometry">
                        <mxPoint as="offset"/>
                    </mxGeometry>
                </mxCell>
                <mxCell id="-vm4lhuLJNUE3L4ekNpX-8" value="" style="endArrow=classic;html=1;rounded=0;entryX=0.167;entryY=0.004;entryDx=0;entryDy=0;entryPerimeter=0;exitX=0.131;exitY=0.991;exitDx=0;exitDy=0;exitPerimeter=0;" parent="1" source="rhUK0AfXt017CsrgmApv-2" target="komNeLyyzliTDDAAMzvB-3" edge="1">
                    <mxGeometry width="50" height="50" relative="1" as="geometry">
                        <mxPoint x="344" y="-440" as="sourcePoint"/>
                        <mxPoint x="550" y="-330" as="targetPoint"/>
                    </mxGeometry>
                </mxCell>
                <mxCell id="N1Kqi0X94rVV5sU2E2lK-1" value="Прием пациента" style="edgeLabel;html=1;align=center;verticalAlign=middle;resizable=0;points=[];" parent="-vm4lhuLJNUE3L4ekNpX-8" connectable="0" vertex="1">
                    <mxGeometry x="-0.1045" y="-1" relative="1" as="geometry">
                        <mxPoint as="offset"/>
                    </mxGeometry>
                </mxCell>
                <mxCell id="-vm4lhuLJNUE3L4ekNpX-11" value="" style="endArrow=classic;html=1;rounded=0;exitX=0.819;exitY=-0.031;exitDx=0;exitDy=0;entryX=0.94;entryY=0.978;entryDx=0;entryDy=0;entryPerimeter=0;exitPerimeter=0;" parent="1" source="komNeLyyzliTDDAAMzvB-3" target="rhUK0AfXt017CsrgmApv-2" edge="1">
                    <mxGeometry width="50" height="50" relative="1" as="geometry">
                        <mxPoint x="500" y="-360" as="sourcePoint"/>
                        <mxPoint x="550" y="-410" as="targetPoint"/>
                    </mxGeometry>
                </mxCell>
                <mxCell id="-vm4lhuLJNUE3L4ekNpX-12" value="&amp;nbsp;Назначение&amp;nbsp;&lt;div&gt;на медикаментозное&amp;nbsp;&lt;div&gt;лечение&lt;/div&gt;&lt;/div&gt;" style="edgeLabel;html=1;align=center;verticalAlign=middle;resizable=0;points=[];" parent="-vm4lhuLJNUE3L4ekNpX-11" connectable="0" vertex="1">
                    <mxGeometry x="-0.0132" y="-2" relative="1" as="geometry">
                        <mxPoint as="offset"/>
                    </mxGeometry>
                </mxCell>
                <mxCell id="4Te13MirWfH9wv-n4SnA-1" value="" style="endArrow=classic;html=1;rounded=0;exitX=0.5;exitY=0;exitDx=0;exitDy=0;entryX=0.553;entryY=1;entryDx=0;entryDy=0;entryPerimeter=0;" parent="1" source="komNeLyyzliTDDAAMzvB-3" target="rhUK0AfXt017CsrgmApv-2" edge="1">
                    <mxGeometry width="50" height="50" relative="1" as="geometry">
                        <mxPoint x="520" y="-510" as="sourcePoint"/>
                        <mxPoint x="570" y="-560" as="targetPoint"/>
                    </mxGeometry>
                </mxCell>
                <mxCell id="4Te13MirWfH9wv-n4SnA-2" value="Назначение&lt;div&gt;&amp;nbsp;на обследование&lt;/div&gt;" style="edgeLabel;html=1;align=center;verticalAlign=middle;resizable=0;points=[];" parent="4Te13MirWfH9wv-n4SnA-1" connectable="0" vertex="1">
                    <mxGeometry x="-0.4831" y="-1" relative="1" as="geometry">
                        <mxPoint y="1" as="offset"/>
                    </mxGeometry>
                </mxCell>
                <mxCell id="8N0JnT3YHQoJW_KpV5x--1" value="" style="endArrow=classic;html=1;rounded=0;exitX=0.07;exitY=1.032;exitDx=0;exitDy=0;exitPerimeter=0;entryX=-0.011;entryY=0.129;entryDx=0;entryDy=0;entryPerimeter=0;" parent="1" source="komNeLyyzliTDDAAMzvB-5" target="rhUK0AfXt017CsrgmApv-2" edge="1">
                    <mxGeometry width="50" height="50" relative="1" as="geometry">
                        <mxPoint x="370" y="-790" as="sourcePoint"/>
                        <mxPoint x="279" y="-560" as="targetPoint"/>
                        <Array as="points">
                            <mxPoint x="280" y="-563"/>
                        </Array>
                    </mxGeometry>
                </mxCell>
                <mxCell id="8N0JnT3YHQoJW_KpV5x--2" value="Адрес клиники" style="edgeLabel;html=1;align=center;verticalAlign=middle;resizable=0;points=[];" parent="8N0JnT3YHQoJW_KpV5x--1" connectable="0" vertex="1">
                    <mxGeometry x="0.2575" y="-3" relative="1" as="geometry">
                        <mxPoint as="offset"/>
                    </mxGeometry>
                </mxCell>
                <mxCell id="N1Kqi0X94rVV5sU2E2lK-2" value="" style="endArrow=classic;html=1;rounded=0;exitX=0.25;exitY=0;exitDx=0;exitDy=0;entryX=0.352;entryY=1;entryDx=0;entryDy=0;entryPerimeter=0;" parent="1" source="rhUK0AfXt017CsrgmApv-1" target="komNeLyyzliTDDAAMzvB-5" edge="1">
                    <mxGeometry width="50" height="50" relative="1" as="geometry">
                        <mxPoint x="400" y="-550" as="sourcePoint"/>
                        <mxPoint x="363" y="-790" as="targetPoint"/>
                    </mxGeometry>
                </mxCell>
                <mxCell id="N1Kqi0X94rVV5sU2E2lK-3" value="Назначение&amp;nbsp;&lt;div&gt;на обследование&lt;/div&gt;" style="edgeLabel;html=1;align=center;verticalAlign=middle;resizable=0;points=[];" parent="N1Kqi0X94rVV5sU2E2lK-2" connectable="0" vertex="1">
                    <mxGeometry x="-0.0173" y="-3" relative="1" as="geometry">
                        <mxPoint as="offset"/>
                    </mxGeometry>
                </mxCell>
                <mxCell id="N1Kqi0X94rVV5sU2E2lK-4" value="" style="endArrow=classic;html=1;rounded=0;entryX=1;entryY=0.5;entryDx=0;entryDy=0;exitX=1.001;exitY=0.135;exitDx=0;exitDy=0;exitPerimeter=0;" parent="1" source="rhUK0AfXt017CsrgmApv-2" target="komNeLyyzliTDDAAMzvB-5" edge="1">
                    <mxGeometry width="50" height="50" relative="1" as="geometry">
                        <mxPoint x="400" y="-450" as="sourcePoint"/>
                        <mxPoint x="610" y="-700" as="targetPoint"/>
                        <Array as="points">
                            <mxPoint x="590" y="-562"/>
                            <mxPoint x="590" y="-825"/>
                        </Array>
                    </mxGeometry>
                </mxCell>
                <mxCell id="N1Kqi0X94rVV5sU2E2lK-5" value="Назначение&lt;div&gt;&amp;nbsp;на медикаментозное лечение&lt;/div&gt;" style="edgeLabel;html=1;align=center;verticalAlign=middle;resizable=0;points=[];" parent="N1Kqi0X94rVV5sU2E2lK-4" connectable="0" vertex="1">
                    <mxGeometry x="0.434" y="1" relative="1" as="geometry">
                        <mxPoint as="offset"/>
                    </mxGeometry>
                </mxCell>
            </root>
        </mxGraphModel>
    </diagram>
    <diagram id="5hfhekeH1kYWlCb4wukP" name="DFD логические">
        <mxGraphModel dx="-125" dy="1732" grid="1" gridSize="10" guides="1" tooltips="1" connect="1" arrows="1" fold="1" page="1" pageScale="1" pageWidth="827" pageHeight="1169" math="0" shadow="0">
            <root>
                <mxCell id="0"/>
                <mxCell id="1" parent="0"/>
                <mxCell id="a9Sl7O8uez9xCAdCzFx1-52" value="Пациент" style="html=1;fontSize=11;" parent="1" vertex="1">
                    <mxGeometry x="1220" y="-300" width="180" height="50" as="geometry"/>
                </mxCell>
                <mxCell id="a9Sl7O8uez9xCAdCzFx1-53" value="Врач" style="html=1;fontSize=11;" parent="1" vertex="1">
                    <mxGeometry x="1230" y="220" width="180" height="50" as="geometry"/>
                </mxCell>
                <mxCell id="jfRJq12P8PdNFq7zpwv4-1" value="2" style="swimlane;childLayout=stackLayout;horizontal=1;startSize=30;horizontalStack=0;rounded=1;fontSize=14;fontStyle=0;strokeWidth=1;resizeParent=0;resizeLast=1;shadow=0;dashed=0;align=center;fillColor=#FFFFFF;" parent="1" vertex="1">
                    <mxGeometry x="1220" y="-90" width="170" height="130" as="geometry"/>
                </mxCell>
                <mxCell id="jfRJq12P8PdNFq7zpwv4-2" value="Пройти&#xa;медикаментозное &#xa;лечение" style="align=center;strokeColor=none;fillColor=none;spacingLeft=4;fontSize=12;verticalAlign=middle;resizable=0;rotatable=0;part=1;" parent="jfRJq12P8PdNFq7zpwv4-1" vertex="1">
                    <mxGeometry y="30" width="170" height="100" as="geometry"/>
                </mxCell>
                <mxCell id="FBtP6ns1yk_zA7yTVSfb-2" value="1" style="swimlane;childLayout=stackLayout;horizontal=1;startSize=30;horizontalStack=0;rounded=1;fontSize=14;fontStyle=0;strokeWidth=1;resizeParent=0;resizeLast=1;shadow=0;dashed=0;align=center;fillColor=#FFFFFF;" parent="1" vertex="1">
                    <mxGeometry x="1250" y="-710" width="190" height="150" as="geometry"/>
                </mxCell>
                <mxCell id="FBtP6ns1yk_zA7yTVSfb-3" value="Пройти обследование" style="align=center;strokeColor=none;fillColor=none;spacingLeft=4;fontSize=12;verticalAlign=middle;resizable=0;rotatable=0;part=1;" parent="FBtP6ns1yk_zA7yTVSfb-2" vertex="1">
                    <mxGeometry y="30" width="190" height="120" as="geometry"/>
                </mxCell>
                <mxCell id="FBtP6ns1yk_zA7yTVSfb-4" value="Пациент" style="html=1;fontSize=11;" parent="1" vertex="1">
                    <mxGeometry x="1280" y="-1070" width="140" height="50" as="geometry"/>
                </mxCell>
                <mxCell id="FBtP6ns1yk_zA7yTVSfb-5" value="Врач" style="html=1;fontSize=11;" parent="1" vertex="1">
                    <mxGeometry x="1250" y="-430" width="190" height="50" as="geometry"/>
                </mxCell>
                <mxCell id="FBtP6ns1yk_zA7yTVSfb-6" value="Лаборатория" style="html=1;fontSize=11;" parent="1" vertex="1">
                    <mxGeometry x="1640" y="-620" width="110" height="50" as="geometry"/>
                </mxCell>
                <mxCell id="FBtP6ns1yk_zA7yTVSfb-16" value="" style="endArrow=classic;html=1;rounded=0;exitX=0.626;exitY=-0.01;exitDx=0;exitDy=0;exitPerimeter=0;entryX=0.624;entryY=0.987;entryDx=0;entryDy=0;entryPerimeter=0;" parent="1" source="FBtP6ns1yk_zA7yTVSfb-5" target="FBtP6ns1yk_zA7yTVSfb-3" edge="1">
                    <mxGeometry width="50" height="50" relative="1" as="geometry">
                        <mxPoint x="1370" y="-570" as="sourcePoint"/>
                        <mxPoint x="1370" y="-550" as="targetPoint"/>
                    </mxGeometry>
                </mxCell>
                <mxCell id="PHjeuJ_cIlMhXdwfJk2t-1" value="назначение&lt;div&gt;&amp;nbsp;на обследование&lt;/div&gt;" style="edgeLabel;html=1;align=center;verticalAlign=middle;resizable=0;points=[];" parent="FBtP6ns1yk_zA7yTVSfb-16" connectable="0" vertex="1">
                    <mxGeometry x="-0.1566" y="-1" relative="1" as="geometry">
                        <mxPoint y="6" as="offset"/>
                    </mxGeometry>
                </mxCell>
                <mxCell id="ybFVuuTSKPFWxaXW8Mn7-1" value="" style="endArrow=classic;html=1;rounded=0;exitX=0.376;exitY=0.965;exitDx=0;exitDy=0;exitPerimeter=0;entryX=0.367;entryY=-0.024;entryDx=0;entryDy=0;entryPerimeter=0;" parent="1" source="FBtP6ns1yk_zA7yTVSfb-3" target="FBtP6ns1yk_zA7yTVSfb-5" edge="1">
                    <mxGeometry width="50" height="50" relative="1" as="geometry">
                        <mxPoint x="1450" y="-570" as="sourcePoint"/>
                        <mxPoint x="1314" y="-449" as="targetPoint"/>
                    </mxGeometry>
                </mxCell>
                <mxCell id="ybFVuuTSKPFWxaXW8Mn7-13" value="прием пациента" style="edgeLabel;html=1;align=center;verticalAlign=middle;resizable=0;points=[];" parent="ybFVuuTSKPFWxaXW8Mn7-1" connectable="0" vertex="1">
                    <mxGeometry x="-0.1447" y="1" relative="1" as="geometry">
                        <mxPoint as="offset"/>
                    </mxGeometry>
                </mxCell>
                <mxCell id="ybFVuuTSKPFWxaXW8Mn7-6" value="D1&amp;nbsp; &amp;nbsp; Результаты&amp;nbsp; &amp;nbsp; &amp;nbsp; &amp;nbsp; &amp;nbsp; &amp;nbsp; &amp;nbsp; &amp;nbsp; &amp;nbsp; &amp;nbsp; &amp;nbsp; &amp;nbsp; &amp;nbsp;анализов" style="html=1;dashed=0;whiteSpace=wrap;shape=mxgraph.dfd.dataStoreID;align=left;spacingLeft=3;points=[[0,0],[0.5,0],[1,0],[0,0.5],[1,0.5],[0,1],[0.5,1],[1,1]];" parent="1" vertex="1">
                    <mxGeometry x="1600" y="-680" width="160" height="30" as="geometry"/>
                </mxCell>
                <mxCell id="ybFVuuTSKPFWxaXW8Mn7-8" value="" style="endArrow=classic;html=1;rounded=0;exitX=0.75;exitY=0;exitDx=0;exitDy=0;entryX=0.679;entryY=1.03;entryDx=0;entryDy=0;entryPerimeter=0;" parent="1" edge="1">
                    <mxGeometry width="50" height="50" relative="1" as="geometry">
                        <mxPoint x="1302.44" y="-711.5" as="sourcePoint"/>
                        <mxPoint x="1300" y="-1020" as="targetPoint"/>
                    </mxGeometry>
                </mxCell>
                <mxCell id="ybFVuuTSKPFWxaXW8Mn7-11" value="Расписание&amp;nbsp;&amp;nbsp;&lt;div&gt;процедурного кабинета&lt;/div&gt;" style="edgeLabel;html=1;align=center;verticalAlign=middle;resizable=0;points=[];" parent="ybFVuuTSKPFWxaXW8Mn7-8" connectable="0" vertex="1">
                    <mxGeometry x="-0.1944" y="-3" relative="1" as="geometry">
                        <mxPoint y="31" as="offset"/>
                    </mxGeometry>
                </mxCell>
                <mxCell id="g6B64mAex2KG7YY3LSvL-1" value="" style="endArrow=classic;html=1;rounded=0;entryX=1;entryY=0.5;entryDx=0;entryDy=0;exitX=1;exitY=0;exitDx=0;exitDy=0;" parent="1" source="FBtP6ns1yk_zA7yTVSfb-2" edge="1">
                    <mxGeometry width="50" height="50" relative="1" as="geometry">
                        <mxPoint x="1420" y="-680" as="sourcePoint"/>
                        <mxPoint x="1420" y="-1043" as="targetPoint"/>
                        <Array as="points">
                            <mxPoint x="1440" y="-710"/>
                            <mxPoint x="1440" y="-878"/>
                            <mxPoint x="1440" y="-1043"/>
                        </Array>
                    </mxGeometry>
                </mxCell>
                <mxCell id="g6B64mAex2KG7YY3LSvL-2" value="Результаты анализов" style="edgeLabel;html=1;align=center;verticalAlign=middle;resizable=0;points=[];" parent="g6B64mAex2KG7YY3LSvL-1" connectable="0" vertex="1">
                    <mxGeometry x="0.1703" relative="1" as="geometry">
                        <mxPoint as="offset"/>
                    </mxGeometry>
                </mxCell>
                <mxCell id="lHk38DJbx_IFoS2ZR-93-4" value="" style="endArrow=classic;html=1;rounded=0;entryX=0;entryY=0.25;entryDx=0;entryDy=0;exitX=1.012;exitY=0.615;exitDx=0;exitDy=0;exitPerimeter=0;" parent="1" source="FBtP6ns1yk_zA7yTVSfb-3" target="FBtP6ns1yk_zA7yTVSfb-6" edge="1">
                    <mxGeometry width="50" height="50" relative="1" as="geometry">
                        <mxPoint x="1490" y="-540" as="sourcePoint"/>
                        <mxPoint x="1540" y="-590" as="targetPoint"/>
                    </mxGeometry>
                </mxCell>
                <mxCell id="G_zHjCXg9PjCo3rBIkJX-16" value="?" style="edgeLabel;html=1;align=center;verticalAlign=middle;resizable=0;points=[];" parent="lHk38DJbx_IFoS2ZR-93-4" connectable="0" vertex="1">
                    <mxGeometry x="-0.0034" relative="1" as="geometry">
                        <mxPoint as="offset"/>
                    </mxGeometry>
                </mxCell>
                <mxCell id="G_zHjCXg9PjCo3rBIkJX-20" value="Новый заказ" style="edgeLabel;html=1;align=center;verticalAlign=middle;resizable=0;points=[];" parent="lHk38DJbx_IFoS2ZR-93-4" connectable="0" vertex="1">
                    <mxGeometry x="0.0226" y="-4" relative="1" as="geometry">
                        <mxPoint as="offset"/>
                    </mxGeometry>
                </mxCell>
                <mxCell id="lHk38DJbx_IFoS2ZR-93-5" value="" style="endArrow=classic;html=1;rounded=0;exitX=0;exitY=0.75;exitDx=0;exitDy=0;entryX=0.988;entryY=0.865;entryDx=0;entryDy=0;entryPerimeter=0;" parent="1" source="FBtP6ns1yk_zA7yTVSfb-6" target="FBtP6ns1yk_zA7yTVSfb-3" edge="1">
                    <mxGeometry width="50" height="50" relative="1" as="geometry">
                        <mxPoint x="1490" y="-540" as="sourcePoint"/>
                        <mxPoint x="1440" y="-580" as="targetPoint"/>
                    </mxGeometry>
                </mxCell>
                <mxCell id="DfO1rC9HQEtj9FGrCQ3N-2" value="Результаты анализов" style="edgeLabel;html=1;align=center;verticalAlign=middle;resizable=0;points=[];" parent="lHk38DJbx_IFoS2ZR-93-5" connectable="0" vertex="1">
                    <mxGeometry x="-0.1752" y="2" relative="1" as="geometry">
                        <mxPoint as="offset"/>
                    </mxGeometry>
                </mxCell>
                <mxCell id="Vgmn78eRWoWOKy7dFQeX-8" value="" style="endArrow=classic;html=1;rounded=0;entryX=0.691;entryY=0.007;entryDx=0;entryDy=0;entryPerimeter=0;exitX=0.79;exitY=1;exitDx=0;exitDy=0;exitPerimeter=0;" parent="1" edge="1">
                    <mxGeometry width="50" height="50" relative="1" as="geometry">
                        <mxPoint x="1259.9999999999998" y="39.65" as="sourcePoint"/>
                        <mxPoint x="1260.0799999999997" y="219.99999999999991" as="targetPoint"/>
                    </mxGeometry>
                </mxCell>
                <mxCell id="Vgmn78eRWoWOKy7dFQeX-11" value="Прием пациента" style="edgeLabel;html=1;align=center;verticalAlign=middle;resizable=0;points=[];" parent="Vgmn78eRWoWOKy7dFQeX-8" connectable="0" vertex="1">
                    <mxGeometry x="-0.1113" y="2" relative="1" as="geometry">
                        <mxPoint as="offset"/>
                    </mxGeometry>
                </mxCell>
                <mxCell id="Vgmn78eRWoWOKy7dFQeX-9" value="" style="endArrow=classic;html=1;rounded=0;exitX=0.25;exitY=0;exitDx=0;exitDy=0;entryX=0.32;entryY=1.026;entryDx=0;entryDy=0;entryPerimeter=0;" parent="1" edge="1">
                    <mxGeometry width="50" height="50" relative="1" as="geometry">
                        <mxPoint x="1360.6" y="220" as="sourcePoint"/>
                        <mxPoint x="1359.9999999999995" y="42.59999999999991" as="targetPoint"/>
                    </mxGeometry>
                </mxCell>
                <mxCell id="Vgmn78eRWoWOKy7dFQeX-10" value="назначение&lt;div&gt;&amp;nbsp;на медикаметозное лечение&lt;/div&gt;" style="edgeLabel;html=1;align=center;verticalAlign=middle;resizable=0;points=[];" parent="Vgmn78eRWoWOKy7dFQeX-9" connectable="0" vertex="1">
                    <mxGeometry x="-0.1831" relative="1" as="geometry">
                        <mxPoint y="6" as="offset"/>
                    </mxGeometry>
                </mxCell>
                <mxCell id="Vgmn78eRWoWOKy7dFQeX-12" value="D2&amp;nbsp; &amp;nbsp; Медикаментозные&amp;nbsp; &amp;nbsp; &amp;nbsp; &amp;nbsp; &amp;nbsp; &amp;nbsp; &amp;nbsp; &amp;nbsp; &amp;nbsp; &amp;nbsp;назначения" style="html=1;dashed=0;whiteSpace=wrap;shape=mxgraph.dfd.dataStoreID;align=left;spacingLeft=3;points=[[0,0],[0.5,0],[1,0],[0,0.5],[1,0.5],[0,1],[0.5,1],[1,1]];" parent="1" vertex="1">
                    <mxGeometry x="1560" y="-45" width="170" height="50" as="geometry"/>
                </mxCell>
                <mxCell id="Vgmn78eRWoWOKy7dFQeX-13" value="" style="endArrow=classic;html=1;rounded=0;entryX=-0.008;entryY=0.182;entryDx=0;entryDy=0;entryPerimeter=0;" parent="1" edge="1">
                    <mxGeometry width="50" height="50" relative="1" as="geometry">
                        <mxPoint x="1390" y="-1" as="sourcePoint"/>
                        <mxPoint x="1558.6399999999999" y="-0.9000000000003183" as="targetPoint"/>
                    </mxGeometry>
                </mxCell>
                <mxCell id="Vgmn78eRWoWOKy7dFQeX-19" value="Новое назначение" style="edgeLabel;html=1;align=center;verticalAlign=middle;resizable=0;points=[];" parent="Vgmn78eRWoWOKy7dFQeX-13" connectable="0" vertex="1">
                    <mxGeometry x="0.0603" y="1" relative="1" as="geometry">
                        <mxPoint as="offset"/>
                    </mxGeometry>
                </mxCell>
                <mxCell id="Vgmn78eRWoWOKy7dFQeX-14" value="" style="endArrow=classic;html=1;rounded=0;exitX=0.011;exitY=0.72;exitDx=0;exitDy=0;exitPerimeter=0;entryX=1;entryY=0.5;entryDx=0;entryDy=0;" parent="1" edge="1">
                    <mxGeometry width="50" height="50" relative="1" as="geometry">
                        <mxPoint x="1560" y="-29.000000000000227" as="sourcePoint"/>
                        <mxPoint x="1388.13" y="-30" as="targetPoint"/>
                    </mxGeometry>
                </mxCell>
                <mxCell id="Vgmn78eRWoWOKy7dFQeX-20" value="Данные&amp;nbsp;&lt;div&gt;о назначении&lt;/div&gt;" style="edgeLabel;html=1;align=center;verticalAlign=middle;resizable=0;points=[];" parent="Vgmn78eRWoWOKy7dFQeX-14" connectable="0" vertex="1">
                    <mxGeometry x="0.0201" y="3" relative="1" as="geometry">
                        <mxPoint as="offset"/>
                    </mxGeometry>
                </mxCell>
                <mxCell id="Vgmn78eRWoWOKy7dFQeX-16" value="" style="endArrow=classic;html=1;rounded=0;entryX=0.75;entryY=1;entryDx=0;entryDy=0;exitX=0.823;exitY=0.017;exitDx=0;exitDy=0;exitPerimeter=0;" parent="1" source="jfRJq12P8PdNFq7zpwv4-1" edge="1">
                    <mxGeometry width="50" height="50" relative="1" as="geometry">
                        <mxPoint x="1360" y="-100" as="sourcePoint"/>
                        <mxPoint x="1360" y="-250" as="targetPoint"/>
                    </mxGeometry>
                </mxCell>
                <mxCell id="Vgmn78eRWoWOKy7dFQeX-18" value="Медикаментозное лечение" style="edgeLabel;html=1;align=center;verticalAlign=middle;resizable=0;points=[];" parent="Vgmn78eRWoWOKy7dFQeX-16" connectable="0" vertex="1">
                    <mxGeometry x="0.0288" y="-2" relative="1" as="geometry">
                        <mxPoint y="37" as="offset"/>
                    </mxGeometry>
                </mxCell>
                <mxCell id="Vgmn78eRWoWOKy7dFQeX-21" value="" style="endArrow=classic;html=1;rounded=0;exitX=0;exitY=0.5;exitDx=0;exitDy=0;entryX=0;entryY=0;entryDx=0;entryDy=0;" parent="1" source="FBtP6ns1yk_zA7yTVSfb-4" target="FBtP6ns1yk_zA7yTVSfb-3" edge="1">
                    <mxGeometry width="50" height="50" relative="1" as="geometry">
                        <mxPoint x="1280" y="-1020" as="sourcePoint"/>
                        <mxPoint x="1280" y="-710" as="targetPoint"/>
                        <Array as="points">
                            <mxPoint x="1230" y="-1045"/>
                            <mxPoint x="1230" y="-680"/>
                        </Array>
                    </mxGeometry>
                </mxCell>
                <mxCell id="Gd31t-lOjiEBUVj3N4C5-2" value="Адрес клиники" style="edgeLabel;html=1;align=center;verticalAlign=middle;resizable=0;points=[];" parent="Vgmn78eRWoWOKy7dFQeX-21" connectable="0" vertex="1">
                    <mxGeometry x="0.0226" y="2" relative="1" as="geometry">
                        <mxPoint as="offset"/>
                    </mxGeometry>
                </mxCell>
                <mxCell id="DfO1rC9HQEtj9FGrCQ3N-3" value="" style="endArrow=classic;html=1;rounded=0;entryX=-0.007;entryY=0.765;entryDx=0;entryDy=0;entryPerimeter=0;exitX=1;exitY=0.25;exitDx=0;exitDy=0;" parent="1" source="FBtP6ns1yk_zA7yTVSfb-3" target="ybFVuuTSKPFWxaXW8Mn7-6" edge="1">
                    <mxGeometry width="50" height="50" relative="1" as="geometry">
                        <mxPoint x="1420" y="-660" as="sourcePoint"/>
                        <mxPoint x="1420" y="-600" as="targetPoint"/>
                    </mxGeometry>
                </mxCell>
                <mxCell id="DfO1rC9HQEtj9FGrCQ3N-4" value="Новый результат&amp;nbsp;" style="edgeLabel;html=1;align=center;verticalAlign=middle;resizable=0;points=[];" parent="DfO1rC9HQEtj9FGrCQ3N-3" connectable="0" vertex="1">
                    <mxGeometry x="-0.2351" y="-1" relative="1" as="geometry">
                        <mxPoint x="22" as="offset"/>
                    </mxGeometry>
                </mxCell>
                <mxCell id="DfO1rC9HQEtj9FGrCQ3N-5" value="" style="endArrow=classic;html=1;rounded=0;exitX=0;exitY=0.5;exitDx=0;exitDy=0;entryX=0.998;entryY=0.137;entryDx=0;entryDy=0;entryPerimeter=0;" parent="1" source="ybFVuuTSKPFWxaXW8Mn7-6" target="FBtP6ns1yk_zA7yTVSfb-3" edge="1">
                    <mxGeometry width="50" height="50" relative="1" as="geometry">
                        <mxPoint x="1370" y="-550" as="sourcePoint"/>
                        <mxPoint x="1420" y="-600" as="targetPoint"/>
                    </mxGeometry>
                </mxCell>
                <mxCell id="DfO1rC9HQEtj9FGrCQ3N-6" value="Данные анализов" style="edgeLabel;html=1;align=center;verticalAlign=middle;resizable=0;points=[];" parent="DfO1rC9HQEtj9FGrCQ3N-5" connectable="0" vertex="1">
                    <mxGeometry x="0.0042" y="-3" relative="1" as="geometry">
                        <mxPoint as="offset"/>
                    </mxGeometry>
                </mxCell>
                <mxCell id="G_zHjCXg9PjCo3rBIkJX-1" value="" style="endArrow=classic;html=1;rounded=0;entryX=0.593;entryY=1;entryDx=0;entryDy=0;entryPerimeter=0;" parent="1" target="FBtP6ns1yk_zA7yTVSfb-4" edge="1">
                    <mxGeometry width="50" height="50" relative="1" as="geometry">
                        <mxPoint x="1363" y="-720" as="sourcePoint"/>
                        <mxPoint x="1447.79" y="-979.999951171875" as="targetPoint"/>
                    </mxGeometry>
                </mxCell>
                <mxCell id="G_zHjCXg9PjCo3rBIkJX-2" value="Направление&lt;div&gt;&amp;nbsp;на обследование&lt;/div&gt;" style="edgeLabel;html=1;align=center;verticalAlign=middle;resizable=0;points=[];fontColor=#000000;" parent="G_zHjCXg9PjCo3rBIkJX-1" connectable="0" vertex="1">
                    <mxGeometry x="-0.0227" y="-1" relative="1" as="geometry">
                        <mxPoint as="offset"/>
                    </mxGeometry>
                </mxCell>
                <mxCell id="G_zHjCXg9PjCo3rBIkJX-3" value="&amp;nbsp;D2&amp;nbsp; &amp;nbsp; &amp;nbsp;Расписание" style="html=1;dashed=0;whiteSpace=wrap;shape=mxgraph.dfd.dataStoreID;align=left;spacingLeft=3;points=[[0,0],[0.5,0],[1,0],[0,0.5],[1,0.5],[0,1],[0.5,1],[1,1]];fillColor=#FFFFFF;strokeColor=#000000;" parent="1" vertex="1">
                    <mxGeometry x="990" y="-670" width="120" height="40" as="geometry"/>
                </mxCell>
                <mxCell id="G_zHjCXg9PjCo3rBIkJX-4" value="" style="endArrow=classic;html=1;rounded=0;entryX=0.015;entryY=0.408;entryDx=0;entryDy=0;entryPerimeter=0;" parent="1" target="FBtP6ns1yk_zA7yTVSfb-3" edge="1">
                    <mxGeometry width="50" height="50" relative="1" as="geometry">
                        <mxPoint x="1120" y="-639" as="sourcePoint"/>
                        <mxPoint x="1410" y="-620" as="targetPoint"/>
                    </mxGeometry>
                </mxCell>
                <mxCell id="G_zHjCXg9PjCo3rBIkJX-5" value="Данные о работе&amp;nbsp;&lt;div&gt;процедурного кабинета&lt;/div&gt;" style="edgeLabel;html=1;align=center;verticalAlign=middle;resizable=0;points=[];" parent="G_zHjCXg9PjCo3rBIkJX-4" connectable="0" vertex="1">
                    <mxGeometry x="-0.0973" relative="1" as="geometry">
                        <mxPoint y="9" as="offset"/>
                    </mxGeometry>
                </mxCell>
                <mxCell id="G_zHjCXg9PjCo3rBIkJX-6" value="" style="endArrow=classic;html=1;rounded=0;exitX=0;exitY=0.25;exitDx=0;exitDy=0;" parent="1" source="FBtP6ns1yk_zA7yTVSfb-3" edge="1">
                    <mxGeometry width="50" height="50" relative="1" as="geometry">
                        <mxPoint x="1360" y="-570" as="sourcePoint"/>
                        <mxPoint x="1110" y="-655" as="targetPoint"/>
                    </mxGeometry>
                </mxCell>
                <mxCell id="G_zHjCXg9PjCo3rBIkJX-7" value="Новое расписание" style="edgeLabel;html=1;align=center;verticalAlign=middle;resizable=0;points=[];" parent="G_zHjCXg9PjCo3rBIkJX-6" connectable="0" vertex="1">
                    <mxGeometry x="0.0029" y="-3" relative="1" as="geometry">
                        <mxPoint as="offset"/>
                    </mxGeometry>
                </mxCell>
                <mxCell id="G_zHjCXg9PjCo3rBIkJX-8" value="D3&amp;nbsp; &amp;nbsp; Пациенты" style="html=1;dashed=0;whiteSpace=wrap;shape=mxgraph.dfd.dataStoreID;align=left;spacingLeft=3;points=[[0,0],[0.5,0],[1,0],[0,0.5],[1,0.5],[0,1],[0.5,1],[1,1]];fillColor=#FFFFFF;strokeColor=#000000;" parent="1" vertex="1">
                    <mxGeometry x="980" y="-30" width="100" height="30" as="geometry"/>
                </mxCell>
                <mxCell id="G_zHjCXg9PjCo3rBIkJX-9" value="" style="endArrow=classic;html=1;rounded=0;exitX=1;exitY=0.5;exitDx=0;exitDy=0;entryX=0.059;entryY=0.45;entryDx=0;entryDy=0;entryPerimeter=0;" parent="1" source="G_zHjCXg9PjCo3rBIkJX-8" target="jfRJq12P8PdNFq7zpwv4-2" edge="1">
                    <mxGeometry width="50" height="50" relative="1" as="geometry">
                        <mxPoint x="1360" y="-470" as="sourcePoint"/>
                        <mxPoint x="1180" y="-530" as="targetPoint"/>
                    </mxGeometry>
                </mxCell>
                <mxCell id="G_zHjCXg9PjCo3rBIkJX-10" value="Данные о пациенте" style="edgeLabel;html=1;align=center;verticalAlign=middle;resizable=0;points=[];" parent="G_zHjCXg9PjCo3rBIkJX-9" connectable="0" vertex="1">
                    <mxGeometry x="-0.0138" y="2" relative="1" as="geometry">
                        <mxPoint as="offset"/>
                    </mxGeometry>
                </mxCell>
                <mxCell id="G_zHjCXg9PjCo3rBIkJX-11" value="D3&amp;nbsp; &amp;nbsp; &amp;nbsp;Назначения на обследования&amp;nbsp; &amp;nbsp;&amp;nbsp;" style="html=1;dashed=0;whiteSpace=wrap;shape=mxgraph.dfd.dataStoreID;align=left;spacingLeft=3;points=[[0,0],[0.5,0],[1,0],[0,0.5],[1,0.5],[0,1],[0.5,1],[1,1]];fillColor=#FFFFFF;strokeColor=light-dark(#000000,#D7817E);" parent="1" vertex="1">
                    <mxGeometry x="980" y="-600" width="150" height="30" as="geometry"/>
                </mxCell>
                <mxCell id="G_zHjCXg9PjCo3rBIkJX-12" value="" style="endArrow=classic;html=1;rounded=0;exitX=1;exitY=0;exitDx=0;exitDy=0;entryX=-0.016;entryY=0.673;entryDx=0;entryDy=0;entryPerimeter=0;" parent="1" source="G_zHjCXg9PjCo3rBIkJX-11" target="FBtP6ns1yk_zA7yTVSfb-3" edge="1">
                    <mxGeometry width="50" height="50" relative="1" as="geometry">
                        <mxPoint x="1360" y="-560" as="sourcePoint"/>
                        <mxPoint x="1410" y="-610" as="targetPoint"/>
                    </mxGeometry>
                </mxCell>
                <mxCell id="G_zHjCXg9PjCo3rBIkJX-15" value="Данные&amp;nbsp;&lt;div&gt;о назначении&lt;/div&gt;" style="edgeLabel;html=1;align=center;verticalAlign=middle;resizable=0;points=[];" parent="G_zHjCXg9PjCo3rBIkJX-12" connectable="0" vertex="1">
                    <mxGeometry x="-0.106" y="-2" relative="1" as="geometry">
                        <mxPoint as="offset"/>
                    </mxGeometry>
                </mxCell>
                <mxCell id="G_zHjCXg9PjCo3rBIkJX-13" value="" style="endArrow=classic;html=1;rounded=0;entryX=1;entryY=1;entryDx=0;entryDy=0;" parent="1" target="G_zHjCXg9PjCo3rBIkJX-11" edge="1">
                    <mxGeometry width="50" height="50" relative="1" as="geometry">
                        <mxPoint x="1250" y="-570" as="sourcePoint"/>
                        <mxPoint x="1410" y="-610" as="targetPoint"/>
                    </mxGeometry>
                </mxCell>
                <mxCell id="G_zHjCXg9PjCo3rBIkJX-14" value="Новое назначение" style="edgeLabel;html=1;align=center;verticalAlign=middle;resizable=0;points=[];" parent="G_zHjCXg9PjCo3rBIkJX-13" connectable="0" vertex="1">
                    <mxGeometry x="-0.036" y="-1" relative="1" as="geometry">
                        <mxPoint as="offset"/>
                    </mxGeometry>
                </mxCell>
                <mxCell id="G_zHjCXg9PjCo3rBIkJX-21" value="" style="endArrow=classic;html=1;rounded=0;exitX=-0.004;exitY=0.628;exitDx=0;exitDy=0;entryX=1;entryY=1;entryDx=0;entryDy=0;exitPerimeter=0;" parent="1" source="jfRJq12P8PdNFq7zpwv4-2" target="G_zHjCXg9PjCo3rBIkJX-8" edge="1">
                    <mxGeometry width="50" height="50" relative="1" as="geometry">
                        <mxPoint x="1500" y="-40" as="sourcePoint"/>
                        <mxPoint x="1550" y="-90" as="targetPoint"/>
                    </mxGeometry>
                </mxCell>
                <mxCell id="G_zHjCXg9PjCo3rBIkJX-22" value="номер пациента" style="edgeLabel;html=1;align=center;verticalAlign=middle;resizable=0;points=[];fontColor=#000000;" parent="G_zHjCXg9PjCo3rBIkJX-21" connectable="0" vertex="1">
                    <mxGeometry x="-0.0685" y="5" relative="1" as="geometry">
                        <mxPoint as="offset"/>
                    </mxGeometry>
                </mxCell>
            </root>
        </mxGraphModel>
    </diagram>
</mxfile>